<?xml version="1.0" encoding="utf-8"?>
<!-- Generator: Adobe Illustrator 26.1.0, SVG Export Plug-In . SVG Version: 6.00 Build 0)  -->
<svg version="1.1" id="Layer_1" xmlns="http://www.w3.org/2000/svg" xmlns:xlink="http://www.w3.org/1999/xlink" x="0px" y="0px"
	 viewBox="0 0 110 71" style="enable-background:new 0 0 110 71;" xml:space="preserve">
<g>
	<path d="M73.2,45.9h8V65h-8V45.9z"/>
	<path d="M75,20.2L51.8,41.8c-0.6,0.6-1.6,0.5-2.2-0.1c-0.6-0.6-0.5-1.6,0.1-2.2l13.2-12.2L41.6,7.5c-0.1-0.1-0.4-0.1-0.5,0
		l-29,26.8C12,34.5,12,34.6,12,34.8c0,0.2,0.2,0.2,0.4,0.2h5.7v29.6c0,0.2,0.2,0.4,0.4,0.4h51.6V44.4c0-0.9,0.7-1.6,1.6-1.6h11.1
		c0.9,0,1.6,0.7,1.6,1.6V65h10.1c0.2,0,0.4-0.2,0.4-0.4V41H98L75,20.2z M29.5,36.8h15.3c0.9,0,1.6,0.7,1.6,1.6V57
		c0,0.9-0.7,1.6-1.6,1.6H29.5c-0.9,0-1.6-0.7-1.6-1.6V38.4C27.9,37.5,28.6,36.8,29.5,36.8z"/>
	<path d="M43.2,40H31v15.5h12.1V40z M32.8,47.8c-0.6-0.6-0.6-1.6,0-2.2l2.3-2.3c0.6-0.6,1.6-0.6,2.2,0c0.6,0.6,0.6,1.6,0,2.2
		L35,47.8C34.4,48.4,33.4,48.4,32.8,47.8L32.8,47.8z M41.4,47.8L37,52.1c-0.6,0.6-1.6,0.6-2.2,0c-0.6-0.6-0.6-1.6,0-2.2l4.3-4.3
		C40.6,44.1,42.8,46.3,41.4,47.8L41.4,47.8z"/>
	<path d="M95.1,34.2V18.9c0-0.2-0.2-0.4-0.4-0.4h-6.3c-0.2,0-0.4,0.2-0.4,0.4v8.9C88.3,28,95.1,34.2,95.1,34.2L95.1,34.2z"/>
</g>
</svg>
