<?xml version="1.0" encoding="utf-8"?>
<!-- Generator: Adobe Illustrator 26.1.0, SVG Export Plug-In . SVG Version: 6.00 Build 0)  -->
<svg version="1.1" id="Layer_1" xmlns="http://www.w3.org/2000/svg" xmlns:xlink="http://www.w3.org/1999/xlink" x="0px" y="0px"
	 viewBox="0 0 563.2 691.2" style="enable-background:new 0 0 563.2 691.2;" xml:space="preserve">
<path d="M235.7,248l35-79c1.5-3.4,5.4-4.8,8.9-3.2l19.8,8.7l-24.6-86.1l-80,40.2l20.3,8.9c3.3,1.5,4.8,5.2,3.3,8.5l-34.6,79.2
	L235.7,248z M209.8,284.5c-6.1-6.1-16.6-1.8-16.6,6.9c0,8.6,10.5,12.9,16.6,6.8C213.6,294.5,213.6,288.3,209.8,284.5L209.8,284.5z
	 M202.9,268.7c20.1,0,30.3,24.5,16,38.7c-14.3,14.3-38.7,4.1-38.7-16C180.3,278.9,190.4,268.7,202.9,268.7L202.9,268.7z
	 M202.9,357.4L202.9,357.4z M209.4,437.5v6.7c0,3.6-2.9,6.5-6.5,6.5s-6.5-2.9-6.5-6.5v-6.7c-12.8-2.9-22.2-14.1-22.8-27.4
	c-0.1-3.6,2.6-6.6,6.2-6.8c3.6-0.1,6.6,2.7,6.7,6.2c0.6,14.1,17.6,20.8,27.6,11.1c4.1-3.9,6.6-10.5,3.7-16.2
	c-3.1-6.2-9.8-7.3-16-7.1c-5,0.2-9.6,0.4-17.6-4.2c-3.1-1.8-6.4-6.1-8-9.2c-8.1-16,3.2-35,20.1-38.9v-6.7c0-3.6,2.9-6.5,6.5-6.5
	s6.5,2.9,6.5,6.5v6.7c12.8,2.9,22.2,14.1,22.8,27.4c0.1,3.6-2.7,6.6-6.2,6.7c-3.6,0.1-6.6-2.6-6.7-6.2
	c-0.6-14.1-17.6-20.8-27.6-11.1c-4.1,4-6.6,10.5-3.7,16.2c0.8,1.5,1.9,2.9,3.2,4c4.5,2.6,7.3,2.4,10.3,2.3c5.1-0.2,10,0.1,15.7,2.5
	c9.1,3.9,14.7,12.5,15.1,22.5c0,0.2,0,0.4,0,0.6C231.7,423.4,222.2,434.6,209.4,437.5L209.4,437.5z M277,347.2
	c-13.8-17.9-20.5-40.1-19.3-62.4l-8.6-5l0,0l-0.2-0.1l-42.7-27.2l-66.2,38c-4.3,2.5-11.2,5.2-11.2,8.8v162.6c0,4.4,3.6,8,8,8h132.3
	c4.4,0,8-3.6,8-8V347.2z M358.1,336.1v6.7c0,3.6-2.9,6.5-6.5,6.5c-3.6,0-6.5-2.9-6.5-6.5v-6.7c-12.8-2.9-22.2-14.1-22.8-27.4
	c-0.1-3.6,2.6-6.6,6.2-6.7c3.6-0.1,6.6,2.6,6.7,6.2c0.6,14.1,17.6,20.8,27.6,11.1c4.1-4,6.6-10.5,3.7-16.2
	c-3.1-6.2-9.8-7.3-15.9-7.1c-5,0.2-9.7,0.4-17.6-4.2c-3-1.8-6.4-6.1-8-9.2c-8.1-16,3.2-35,20.1-38.9v-6.7c0-3.6,2.9-6.5,6.5-6.5
	c3.6,0,6.5,2.9,6.5,6.5v6.7c12.8,2.9,22.2,14.1,22.8,27.4c0.1,3.6-2.7,6.6-6.2,6.7c-3.6,0.1-6.6-2.6-6.7-6.2
	c-0.6-14.1-17.6-20.8-27.6-11.1c-4.1,4-6.6,10.5-3.7,16.2c0.8,1.5,1.9,2.9,3.2,4c4.6,2.6,7.3,2.5,10.3,2.4c5.1-0.2,10,0.1,15.6,2.5
	c9.1,3.9,14.7,12.5,15,22.4c0,0.2,0,0.4,0,0.6C380.3,322.1,370.8,333.2,358.1,336.1L358.1,336.1z M382.1,378.8l-26.7,60.4
	c-1.5,3.5-5.4,4.8-8.9,3.2l-19.8-8.7l24.6,86.1l80-40.3l-20.3-8.9c-3.3-1.4-4.8-5.2-3.3-8.5l34.5-79.2l-36.7-16.1
	C398.3,372,390.4,376,382.1,378.8L382.1,378.8z M375.3,367.4c0.1,0,0.2-0.1,0.3-0.1c17.2-5.1,32.8-16.8,43-31.8
	c12.6-18.5,16.4-40.3,12.5-60.7s-15.6-39.3-34-51.8c-18.5-12.6-40.4-16.4-60.7-12.5c-44.2,8.5-72.7,51-64.4,94.8
	c4,21.1,16.2,39.7,34,51.8c18.5,12.6,40.4,16.4,60.8,12.5C369.6,369,372.5,368.2,375.3,367.4L375.3,367.4z"/>
</svg>
