<?xml version="1.0" encoding="utf-8"?>
<!-- Generator: Adobe Illustrator 26.1.0, SVG Export Plug-In . SVG Version: 6.00 Build 0)  -->
<svg version="1.1" id="Layer_1" xmlns="http://www.w3.org/2000/svg" xmlns:xlink="http://www.w3.org/1999/xlink" x="0px" y="0px"
	 viewBox="0 0 39.8 39.8" style="enable-background:new 0 0 39.8 39.8;" xml:space="preserve">
<style type="text/css">
	.st0{fill:#FFFFFF;}
</style>
<path class="st0" d="M34.7,14.6L21.1,4.7c-0.7-0.5-1.7-0.5-2.5,0L5.1,14.6c-0.9,0.7-1.1,2-0.5,2.9C5,17.9,5.5,18.2,6,18.3
	c0.1,0,0.2,0,0.3,0c0.4,0,0.9-0.1,1.2-0.4l1.1-0.8v13.5c0,1,0.8,1.8,1.8,1.8h11.9c0,0.1,0,0.1,0,0.2v1.6c0,0.6,0.5,1.2,1.2,1.2h8.2
	c0.6,0,1.2-0.5,1.2-1.2v-1.6c0-0.2-0.1-0.5-0.2-0.7c0.1-0.2,0.2-0.4,0.2-0.7v-1.6c0-0.2-0.1-0.5-0.2-0.7c0.1-0.2,0.2-0.4,0.2-0.7
	v-1.6c0-0.2-0.1-0.5-0.2-0.7c0.1-0.2,0.2-0.4,0.2-0.7v-1.6c0-0.6-0.5-1.2-1.2-1.2h-0.4v-5.5l1.1,0.8c0.4,0.3,1,0.5,1.5,0.4
	c0.5-0.1,1-0.4,1.4-0.8C35.8,16.6,35.6,15.3,34.7,14.6z M31.8,26.8v1.6c0,0.1-0.1,0.2-0.2,0.2h-7.7c0.7-0.5,1.3-1.2,1.8-2h5.9
	C31.7,26.6,31.8,26.7,31.8,26.8z M31.8,29.7v1.6c0,0.1-0.1,0.2-0.2,0.2h-8.2v0h-0.1c-0.1,0-0.1-0.1-0.1-0.2v-1.6
	c0-0.1,0.1-0.2,0.2-0.2h8.2C31.7,29.6,31.8,29.6,31.8,29.7z M19.9,28.9c-3.2,0-5.9-2.6-5.9-5.9s2.6-5.9,5.9-5.9s5.9,2.6,5.9,5.9
	S23.1,28.9,19.9,28.9z M19.9,29.9c0.9,0,1.7-0.2,2.4-0.4c0,0.1,0,0.2,0,0.3v1.6c0,0.1,0,0.1,0,0.2h-6.2v-2.8
	C17.2,29.5,18.5,29.9,19.9,29.9z M31.8,34.3c0,0.1-0.1,0.2-0.2,0.2h-8.2c-0.1,0-0.2-0.1-0.2-0.2v-1.6c0-0.1,0.1-0.2,0.2-0.2h8.2
	c0.1,0,0.2,0.1,0.2,0.2L31.8,34.3L31.8,34.3z M31.8,23.8v1.6c0,0.1-0.1,0.2-0.2,0.2h-5.4c0.3-0.6,0.4-1.3,0.5-2h4.9
	C31.7,23.7,31.8,23.7,31.8,23.8z M30.2,22.7h-3.5c-0.2-3.6-3.2-6.5-6.8-6.5c-3.8,0-6.8,3.1-6.8,6.8c0,1.9,0.8,3.6,2.1,4.9v3.6h-4.7
	c-0.4,0-0.8-0.4-0.8-0.8V16.5L19.9,9l10.3,7.5V22.7z M34.4,16.9c-0.2,0.2-0.4,0.4-0.7,0.4c-0.3,0-0.6,0-0.8-0.2L20.2,8
	c-0.2-0.1-0.4-0.1-0.6,0L7,17.2c-0.2,0.2-0.5,0.2-0.8,0.2c-0.3,0-0.5-0.2-0.7-0.4c-0.4-0.5-0.2-1.2,0.2-1.5l13.6-9.8c0,0,0,0,0,0
	c0.2-0.1,0.4-0.2,0.6-0.2c0.2,0,0.5,0.1,0.6,0.2l13.6,9.9C34.6,15.7,34.7,16.4,34.4,16.9z M19.9,18.1c-2.7,0-4.9,2.2-4.9,4.9
	s2.2,4.9,4.9,4.9s4.9-2.2,4.9-4.9S22.6,18.1,19.9,18.1z M19.9,27c-2.2,0-3.9-1.8-3.9-3.9s1.8-3.9,3.9-3.9s3.9,1.8,3.9,3.9
	S22.1,27,19.9,27z M21.4,24c0,0.6-0.4,1.2-1,1.4v0.4c0,0.3-0.2,0.5-0.5,0.5s-0.5-0.2-0.5-0.5v-0.3c-0.3-0.1-0.6-0.3-0.8-0.6
	c-0.2-0.2-0.1-0.5,0.1-0.7c0.2-0.2,0.5-0.1,0.7,0.1c0.1,0.1,0.2,0.2,0.4,0.2H20c0.2,0,0.4-0.2,0.4-0.4c0-0.2-0.2-0.4-0.4-0.4h-0.2
	c-0.8,0-1.4-0.6-1.4-1.4c0-0.6,0.4-1.2,1-1.4v-0.4c0-0.3,0.2-0.5,0.5-0.5c0.3,0,0.5,0.2,0.5,0.5v0.3c0.3,0.1,0.6,0.3,0.8,0.6
	c0.2,0.2,0.1,0.5-0.1,0.7c-0.2,0.2-0.5,0.1-0.7-0.1c-0.1-0.1-0.2-0.2-0.4-0.2h-0.3c-0.2,0-0.4,0.2-0.4,0.4c0,0.2,0.2,0.4,0.4,0.4H20
	C20.8,22.6,21.4,23.2,21.4,24z"/>
</svg>
