<?xml version="1.0" encoding="utf-8"?>
<!-- Generator: Adobe Illustrator 26.1.0, SVG Export Plug-In . SVG Version: 6.00 Build 0)  -->
<svg version="1.1" id="Layer_1" xmlns="http://www.w3.org/2000/svg" xmlns:xlink="http://www.w3.org/1999/xlink" x="0px" y="0px"
	 viewBox="0 0 39.8 39.8" style="enable-background:new 0 0 39.8 39.8;" xml:space="preserve">
<style type="text/css">
	.st0{fill:#FFFFFF;}
</style>
<g>
	<path class="st0" d="M31.2,13.1V5.8c0-0.5-0.4-1-1-1h-4.4c-0.5,0-1,0.4-1,1v1.3l-4.3-4c-0.4-0.3-1-0.3-1.3,0L1.2,20
		c-0.4,0.4-0.4,1,0,1.4c0.2,0.2,0.4,0.3,0.7,0.3h4.8V35H3.3c-0.5,0-1,0.4-1,1c0,0.5,0.4,1,1,1h33.3c0.5,0,1-0.4,1-1c0-0.5-0.4-1-1-1
		h-3.4V21.7h4.8c0.5,0,1-0.4,1-1c0-0.3-0.1-0.5-0.3-0.7L31.2,13.1z M32.2,19.8c-0.5,0-1,0.4-1,1V35H8.6V20.8c0-0.5-0.4-1-1-1H4.4
		L19.9,5.2l5.2,4.9c0.4,0.4,1,0.3,1.4,0c0.2-0.2,0.3-0.4,0.3-0.7V6.8h2.4v6.7c0,0.3,0.1,0.5,0.3,0.7l6,5.6L32.2,19.8z"/>
	<path class="st0" d="M25.1,18.9c-0.7-0.7-1.8-0.7-2.5,0l0,0l-4.1,4.1l-1.4-1.4c-0.7-0.7-1.8-0.7-2.5,0l-1.4,1.4
		c-0.7,0.7-0.7,1.8,0,2.5l4,4c0.7,0.7,1.8,0.7,2.5,0l6.7-6.7c0.7-0.7,0.7-1.8,0-2.5L25.1,18.9z M18.5,28l-3.7-3.7l1.1-1.1l1.9,1.9
		c0.4,0.4,1,0.4,1.4,0c0,0,0,0,0,0l4.7-4.7l1.1,1.1L18.5,28z"/>
</g>
</svg>
