<?xml version="1.0" encoding="utf-8"?>
<!-- Generator: Adobe Illustrator 26.1.0, SVG Export Plug-In . SVG Version: 6.00 Build 0)  -->
<svg version="1.1" id="Layer_1" xmlns="http://www.w3.org/2000/svg" xmlns:xlink="http://www.w3.org/1999/xlink" x="0px" y="0px"
	 viewBox="0 0 39.8 27" style="enable-background:new 0 0 39.8 27;" xml:space="preserve">
<g>
	<path d="M37.7,18.4c0-1.1-0.9-2-2-2h-0.3c1.4-1,2.3-2.7,2.3-4.6c0-3.2-2.6-5.7-5.7-5.7c-0.8,0-1.6,0.2-2.3,0.5V4.4
		c0-0.3-0.2-0.6-0.6-0.6h-4.9c-0.3,0-0.6,0.2-0.6,0.6v20.9h-3V7.9c0-0.3-0.2-0.6-0.6-0.6h-4.9c-0.3,0-0.6,0.2-0.6,0.6v17.4h-3V13.9
		c0-0.3-0.2-0.6-0.6-0.6H6.3c-0.3,0-0.6,0.2-0.6,0.6v11.4H3.2V1.5c0-0.3-0.2-0.6-0.6-0.6S2.1,1.2,2.1,1.5v24.3
		c0,0.3,0.2,0.6,0.6,0.6h33.1c1.1,0,2-0.9,2-2c0-0.6-0.2-1.1-0.6-1.5c0.4-0.4,0.6-0.9,0.6-1.5s-0.2-1.1-0.6-1.5
		C37.5,19.6,37.7,19,37.7,18.4z M36.6,11.8c0,2.5-2.1,4.6-4.6,4.6s-4.6-2.1-4.6-4.6s2.1-4.6,4.6-4.6C34.6,7.2,36.6,9.3,36.6,11.8z
		 M24.8,4.9h3.8v2.3c-1.4,1-2.3,2.7-2.3,4.6s0.9,3.6,2.3,4.6h-0.3c-1.1,0-2,0.9-2,2c0,0.6,0.2,1.1,0.6,1.5c-0.4,0.4-0.6,0.9-0.6,1.5
		s0.2,1.1,0.6,1.5c-0.4,0.4-0.6,0.9-0.6,1.5c0,0.3,0.1,0.6,0.2,0.9h-1.7V4.9L24.8,4.9z M15.8,8.5h3.8v16.8h-3.8V8.5z M6.8,14.4h3.8
		v10.9H6.8V14.4z M36.6,24.4c0,0.5-0.4,0.9-0.9,0.9h-7.4c-0.5,0-0.9-0.4-0.9-0.9s0.4-0.9,0.9-0.9h7.4C36.2,23.4,36.6,23.9,36.6,24.4
		z M36.6,21.4c0,0.5-0.4,0.9-0.9,0.9h-7.4c-0.5,0-0.9-0.4-0.9-0.9s0.4-0.9,0.9-0.9h7.4C36.2,20.5,36.6,20.9,36.6,21.4z M28.3,19.4
		c-0.5,0-0.9-0.4-0.9-0.9s0.4-0.9,0.9-0.9h7.4c0.5,0,0.9,0.4,0.9,0.9s-0.4,0.9-0.9,0.9H28.3z M30.1,13.1c-0.1-0.3,0-0.6,0.3-0.7
		s0.6,0,0.7,0.3c0.2,0.4,0.5,0.6,0.7,0.7c0.3,0.1,0.6,0,0.8-0.1c0.1-0.1,0.2-0.2,0.2-0.3c0-0.1,0-0.2-0.1-0.3
		c-0.1-0.1-0.4-0.2-0.6-0.2c-0.4-0.1-1-0.2-1.4-0.7c-0.3-0.4-0.5-0.9-0.4-1.4s0.5-0.9,1-1.1h0.1V8.8c0-0.3,0.2-0.6,0.6-0.6
		c0.3,0,0.6,0.2,0.6,0.6v0.4c0.2,0,0.3,0.1,0.5,0.2c0.4,0.2,0.7,0.6,0.8,1c0.1,0.3-0.1,0.6-0.4,0.7c-0.3,0.1-0.6-0.1-0.7-0.4
		c0-0.1-0.1-0.2-0.3-0.3c-0.2-0.1-0.6-0.1-0.8,0c-0.2,0.1-0.3,0.2-0.3,0.3c0,0.1,0,0.3,0.1,0.4c0.2,0.2,0.5,0.3,0.9,0.3
		c0.4,0.1,0.8,0.2,1.1,0.5s0.5,0.7,0.4,1.2c0,0.5-0.3,0.9-0.7,1.1c-0.2,0.1-0.4,0.2-0.7,0.3v0.3c0,0.3-0.2,0.6-0.6,0.6
		c-0.3,0-0.6-0.2-0.6-0.6v-0.5C30.9,14.2,30.4,13.7,30.1,13.1z"/>
</g>
</svg>
