<?xml version="1.0" encoding="utf-8"?>
<!-- Generator: Adobe Illustrator 26.1.0, SVG Export Plug-In . SVG Version: 6.00 Build 0)  -->
<svg version="1.1" id="Layer_1" xmlns="http://www.w3.org/2000/svg" xmlns:xlink="http://www.w3.org/1999/xlink" x="0px" y="0px"
	 viewBox="0 0 39.8 39.8" style="enable-background:new 0 0 39.8 39.8;" xml:space="preserve">
<style type="text/css">
	.st0{fill:#FFFFFF;}
</style>
<path class="st0" d="M14,31.2c-0.4,0-0.7-0.3-0.7-0.7s0.3-0.7,0.7-0.7h5.8c0.2,0,0.4-0.1,0.5-0.2c0.1-0.1,0.2-0.3,0.2-0.5v-0.6
	c0-0.2-0.1-0.4-0.2-0.5c-0.1-0.1-0.3-0.2-0.5-0.2H14c-0.1,0-0.3,0-0.4-0.1c-0.7-0.4-1.7-0.5-2.7-0.5c-1,0-1.9,0.2-2.6,0.5v6.7h2.1
	c3.5,0.3,7.1,0.9,10.6,1.2c0.1,0,0.2,0,0.3,0c0.1,0,0.2,0,0.3,0l5-0.8c0.2,0,0.3-0.1,0.5-0.1c0.1-0.1,0.3-0.1,0.4-0.2l7.8-5.5
	c0.2-0.1,0.3-0.3,0.4-0.5c0-0.2,0-0.3-0.1-0.5l-0.3-0.6c-0.1-0.2-0.3-0.3-0.4-0.3c-0.2,0-0.4,0-0.6,0.1l-8.3,4.8
	c-0.1,0.1-0.3,0.1-0.5,0.1L20.8,31c-0.3,0.2-0.7,0.3-1.1,0.3L14,31.2z M23.6,10.1c0.2,0.3,0.1,0.8-0.3,1s-0.8,0.1-1-0.3l-1-1.7
	c-0.2-0.3-0.1-0.8,0.3-1s0.8-0.1,1,0.3L23.6,10.1z M33.2,10.8c-0.2,0.3-0.6,0.5-1,0.3c-0.3-0.2-0.5-0.6-0.3-1l1-1.7
	c0.2-0.3,0.6-0.5,1-0.3c0.3,0.2,0.5,0.6,0.3,1L33.2,10.8z M28.5,9.1c0,0.4-0.3,0.7-0.7,0.7c-0.4,0-0.7-0.3-0.7-0.7v-2
	c0-0.4,0.3-0.7,0.7-0.7c0.4,0,0.7,0.3,0.7,0.7V9.1z M27.8,10.7c2.2,0,4.2,0.9,5.7,2.4c1.5,1.5,2.4,3.5,2.4,5.7s-0.9,4.2-2.4,5.7
	c-1.5,1.5-3.5,2.4-5.7,2.4c-2.2,0-4.2-0.9-5.7-2.4c-1-1-1.7-2.2-2.1-3.5c-0.5,0.6-1.2,1-1.9,1.4c-1.1,0.6-2.5,1-3.9,1
	c-2.2,0-4.2-0.9-5.7-2.4c-1.5-1.5-2.4-3.5-2.4-5.7c0-2.2,0.9-4.2,2.4-5.7c1.5-1.5,3.5-2.4,5.7-2.4c2.1,0,4.1,0.8,5.5,2.2
	c1,1,1.8,2.3,2.2,3.7l0,0C23.5,11.6,25.5,10.7,27.8,10.7L27.8,10.7z M19.7,19l0-0.2c0-1.5,0.4-2.9,1.1-4.1c-0.2-1.6-0.9-3.1-2-4.2
	c-1.2-1.1-2.8-1.8-4.5-1.8c-1.8,0-3.5,0.7-4.7,1.9c-1.2,1.2-1.9,2.8-1.9,4.7c0,1.8,0.7,3.5,1.9,4.7c1.2,1.2,2.8,1.9,4.7,1.9
	c1.1,0,2.2-0.3,3.2-0.8C18.4,20.5,19.2,19.8,19.7,19L19.7,19z M32.4,14.1c-1.2-1.2-2.8-1.9-4.7-1.9c-1.8,0-3.5,0.7-4.7,1.9
	c-1.2,1.2-1.9,2.8-1.9,4.7s0.7,3.5,1.9,4.7c1.2,1.2,2.8,1.9,4.7,1.9c1.8,0,3.5-0.7,4.7-1.9c1.2-1.2,1.9-2.8,1.9-4.7
	S33.6,15.3,32.4,14.1z M27.2,14c0-0.3,0.2-0.5,0.5-0.5c0.3,0,0.5,0.2,0.5,0.5v0.4c0.4,0.1,0.8,0.3,1.1,0.6c0.4,0.4,0.7,1,0.7,1.6
	c0,0.4-0.3,0.7-0.7,0.7c-0.4,0-0.7-0.3-0.7-0.7c0-0.2-0.1-0.4-0.2-0.6L28.3,16v2.3c0.9,0.6,1.8,1.3,1.8,2.6c0,0.6-0.3,1.2-0.7,1.6
	c-0.3,0.3-0.7,0.5-1.1,0.6v0.4c0,0.3-0.2,0.5-0.5,0.5c-0.3,0-0.5-0.2-0.5-0.5v-0.4c-0.4-0.1-0.8-0.3-1.1-0.7c-0.4-0.4-0.6-1-0.6-1.6
	c0-0.4,0.3-0.7,0.7-0.7s0.7,0.3,0.7,0.7c0,0.2,0.1,0.4,0.2,0.6c0,0,0.1,0.1,0.1,0.1v-2.3c-0.9-0.6-1.8-1.3-1.8-2.6
	c0-0.7,0.2-1.2,0.7-1.6c0.3-0.3,0.7-0.5,1.1-0.6L27.2,14L27.2,14z M28.3,20.1v1.4l0.1-0.1c0.2-0.2,0.2-0.4,0.2-0.6
	C28.6,20.6,28.5,20.3,28.3,20.1L28.3,20.1z M27.2,17.4V16L27.2,16c-0.2,0.2-0.2,0.4-0.2,0.6C26.9,16.9,27,17.1,27.2,17.4L27.2,17.4z
	 M10.1,6.6c0.2,0.3,0.1,0.8-0.3,1c-0.3,0.2-0.8,0.1-1-0.3l-1-1.7c-0.2-0.3-0.1-0.8,0.3-1c0.3-0.2,0.8-0.1,1,0.3L10.1,6.6z M19.7,7.3
	c-0.2,0.3-0.6,0.5-1,0.3c-0.3-0.2-0.5-0.6-0.3-1l1-1.7c0.2-0.3,0.6-0.5,1-0.3c0.3,0.2,0.5,0.6,0.3,1L19.7,7.3z M15,5.7
	c0,0.4-0.3,0.7-0.7,0.7c-0.4,0-0.7-0.3-0.7-0.7v-2c0-0.4,0.3-0.7,0.7-0.7c0.4,0,0.7,0.3,0.7,0.7V5.7z M13.8,10.5
	c0-0.3,0.2-0.5,0.5-0.5s0.5,0.2,0.5,0.5v0.4c0.4,0.1,0.8,0.3,1.1,0.6c0.4,0.4,0.7,1,0.7,1.6c0,0.4-0.3,0.7-0.7,0.7
	c-0.4,0-0.7-0.3-0.7-0.7c0-0.2-0.1-0.4-0.2-0.6l-0.1-0.1v2.3c0.9,0.6,1.8,1.3,1.8,2.6c0,0.6-0.3,1.2-0.7,1.6
	c-0.3,0.3-0.7,0.5-1.1,0.6V20c0,0.3-0.2,0.5-0.5,0.5c-0.3,0-0.5-0.2-0.5-0.5v-0.4c-0.4-0.1-0.8-0.3-1.1-0.7c-0.4-0.4-0.6-1-0.6-1.6
	c0-0.4,0.3-0.7,0.7-0.7s0.7,0.3,0.7,0.7c0,0.2,0.1,0.4,0.2,0.6c0,0,0.1,0.1,0.1,0.1v-2.3c-0.9-0.6-1.8-1.3-1.8-2.6
	c0-0.7,0.2-1.2,0.7-1.6c0.3-0.3,0.7-0.5,1.1-0.6L13.8,10.5L13.8,10.5z M14.9,16.6V18l0.1-0.1c0.2-0.2,0.2-0.4,0.2-0.6
	C15.2,17.1,15,16.9,14.9,16.6L14.9,16.6z M13.8,13.9v-1.4l-0.1,0.1c-0.2,0.2-0.2,0.4-0.2,0.6C13.5,13.4,13.6,13.7,13.8,13.9
	L13.8,13.9z M8.2,26c0.8-0.2,1.7-0.4,2.6-0.4c1.2,0,2.5,0.2,3.4,0.6h5.6c0.6,0,1.1,0.2,1.5,0.6l0,0c0.4,0.4,0.6,0.9,0.6,1.5V29
	c0,0.2,0,0.4-0.1,0.6l3.5,0.6l8.1-4.7c0.5-0.3,1.1-0.4,1.7-0.2c0.5,0.1,1,0.5,1.3,1l0.3,0.6c0.3,0.5,0.4,1.1,0.2,1.6
	c-0.1,0.5-0.5,1-1,1.3l-7.8,5.5c-0.2,0.2-0.5,0.3-0.7,0.4C27.3,35.9,27,36,26.7,36l-5,0.8c-0.1,0-0.3,0-0.5,0c-0.2,0-0.3,0-0.5,0
	l-10.5-1.1H8.2v0.5c0,0.4-0.3,0.7-0.7,0.7h-4c-0.4,0-0.7-0.3-0.7-0.7v-9.9c0-0.4,0.3-0.7,0.7-0.7h4C7.8,25.5,8.1,25.7,8.2,26L8.2,26
	z M6.8,27H4.2v8.4h2.6V27z"/>
</svg>
