<?xml version="1.0" encoding="utf-8"?>
<!-- Generator: Adobe Illustrator 26.1.0, SVG Export Plug-In . SVG Version: 6.00 Build 0)  -->
<svg version="1.1" id="Layer_1" xmlns="http://www.w3.org/2000/svg" xmlns:xlink="http://www.w3.org/1999/xlink" x="0px" y="0px"
	 viewBox="0 0 39.8 39.8" style="enable-background:new 0 0 39.8 39.8;" xml:space="preserve">
<style type="text/css">
	.st0{fill:#FFFFFF;}
</style>
<g>
	<g>
		<path d="M571.8,460.2V481h13.2v-20.8H571.8z M571.8,460.2V481h13.2v-20.8H571.8z M647.6,410.5v-2.7h-5.1v-2.4h-5.4v-2.6h-2.4v-2.6
			h-5.3v-2.6H624v-5.2h-7.5v-2.8H611v-2.4h-5v-2.6h-2.6v-2.8h-5.4v-2.6h-5.3v-2.4h-2.3V374H585v-2.9h-5.1v-2.4H572v2.5h-2.8v65.5
			h-2.6v2.5h-2.9v2.7h-5v5.3h-2.6v15.9h-15.7v38.7h120.4v-91.3H647.6z M556.2,496.8h-5.4v-29h5.4V496.8z M590.1,499.6h-23.6V455h2.6
			v-2.7h2.7v-2.7h2.5v-2.5h2.7v-2.5h2.6v-2.8h2.4v-2.5h2.6v-2.6h2.8V434h2.6V499.6z M618.9,496.8h-23.5v-49.7h7.8v2.5h5.2v2.8h2.7
			v2.6h5.1v2.6h2.6V496.8z M650.3,496.8h-26.1v-47.2h-7.9v-2.6h-2.6v-2.3h-2.5V442h-5.5v-2.6h-5v-2.7h-5.3v-13H590v-2.7h-7.8v2.6
			h-2.6v2.6H577v-41.8h2.6v2.6h5.3v2.6h5.2v2.5h2.7v2.8h5.3v2.5h5.1v2.7h5.3v2.4h2.6v2.6h5.1v2.9h5.3v2.5h2.5v2.7h-15.6V434h15.7
			v-20.9h5.2v2.5h5.3v2.5h5.1v2.9h2.4v2.6h5.4v2.5h2.6V496.8z M571.8,481h13.2v-20.8h-13.2V481z"/>
	</g>
	<g>
		<polygon points="624.2,413.1 624.2,434 608.5,434 608.5,413.1 624.1,413.1 624.1,413.1 		"/>
	</g>
	<g>
		<rect x="571.8" y="460.2" width="13.2" height="20.8"/>
	</g>
	<g>
		<rect x="608.5" y="413.1" width="15.7" height="20.9"/>
	</g>
	<g>
		<rect x="571.8" y="460.2" width="13.2" height="20.8"/>
	</g>
</g>
<text transform="matrix(1 0 0 1 42.8818 33.7578)" style="display:none; font-family:'AXIS-ExtraBold'; font-size:41.4736px;">3</text>
<g>
	<path class="st0" d="M27.8,22.7h5V29h-5v5h-6.9v-5H9.2L7,22.7L20.9,5.8h6.9V22.7z M13.9,22.7h7.1v-8.6L13.9,22.7z"/>
</g>
</svg>
