<?xml version="1.0" encoding="utf-8"?>
<!-- Generator: Adobe Illustrator 26.1.0, SVG Export Plug-In . SVG Version: 6.00 Build 0)  -->
<svg version="1.1" id="Layer_1" xmlns="http://www.w3.org/2000/svg" xmlns:xlink="http://www.w3.org/1999/xlink" x="0px" y="0px"
	 viewBox="0 0 39.8 39.8" style="enable-background:new 0 0 39.8 39.8;" xml:space="preserve">
<style type="text/css">
	.st0{fill:#FFFFFF;}
	.st1{fill-rule:evenodd;clip-rule:evenodd;fill:#FFFFFF;}
</style>
<g>
	<path class="st0" d="M14,15.1L14,15.1c-0.5,0-0.9-0.4-0.9-0.9c0-0.5,0.4-0.9,0.9-0.9h0c0.5,0,0.9,0.4,0.9,0.9
		C14.8,14.7,14.4,15.1,14,15.1"/>
	<path class="st0" d="M14,18.5L14,18.5c-0.5,0-0.9-0.4-0.9-0.9c0-0.5,0.4-0.9,0.9-0.9h0c0.5,0,0.9,0.4,0.9,0.9
		C14.8,18.1,14.4,18.5,14,18.5"/>
	<path class="st1" d="M22.1,3.1h-3.4V2.5c0-0.5-0.4-0.9-0.9-0.9S17,2,17,2.5v0.6h-3.4V2.5c0-0.5-0.4-0.9-0.9-0.9
		c-0.5,0-0.9,0.4-0.9,0.9v0.6H8.4V2.5C8.4,2,8,1.6,7.6,1.6C7.1,1.6,6.7,2,6.7,2.5v0.6H5.2C3.5,3.1,2,4.7,2,6.6v23
		C2,31.5,3.5,33,5.2,33h14.5v2.8c0,1.3,1,2.3,2.3,2.3h11.2c1.3,0,2.3-1,2.3-2.3v-7.6l0.9,0.8c0.4,0.3,0.9,0.2,1.2-0.1
		c0.3-0.4,0.2-0.9-0.1-1.2l-8.2-6.6c-0.3-0.2-0.6-0.4-0.9-0.5v-14c0-1.9-1.5-3.4-3.3-3.4h-1.4V2.5c0-0.5-0.4-0.9-0.9-0.9
		c-0.5,0-0.9,0.4-0.9,0.9V3.1z M33.8,26.9l-5.5-4.5c-0.4-0.4-1-0.4-1.5,0l-5.5,4.4v9c0,0.3,0.3,0.6,0.6,0.6h2.4v-4.7
		c0-0.5,0.4-0.9,0.9-0.9H30c0.5,0,0.9,0.4,0.9,0.9v4.7h2.4c0.3,0,0.6-0.3,0.6-0.6V26.9z M26.1,36.5h3v-3.9h-3V36.5z M26.8,20.6V10
		H3.7v19.6c0,0.9,0.7,1.7,1.6,1.7h14.5v-3.1L18.8,29c-0.4,0.3-0.9,0.2-1.2-0.1c-0.3-0.4-0.2-0.9,0.1-1.2l8.1-6.6
		C26.1,20.9,26.4,20.7,26.8,20.6z M6.3,29.6h5.2c0.5,0,0.9-0.4,0.9-0.9s-0.4-0.9-0.9-0.9H6.3c-0.5,0-0.9,0.4-0.9,0.9
		S5.8,29.6,6.3,29.6z M25.9,28.8l1.7-1.7l1.7,1.7c0.3,0.3,0.9,0.3,1.2,0c0.3-0.3,0.3-0.9,0-1.2l-2.3-2.4c-0.2-0.2-0.4-0.3-0.6-0.3
		c-0.2,0-0.4,0.1-0.6,0.3l-2.3,2.4c-0.3,0.3-0.3,0.9,0,1.2C25,29.1,25.5,29.1,25.9,28.8z M6.3,27h8.6c0.5,0,0.9-0.4,0.9-0.9
		s-0.4-0.9-0.9-0.9H6.3c-0.5,0-0.9,0.4-0.9,0.9S5.8,27,6.3,27z M7.5,13.2c-0.5,0.1-0.9,0.3-1.2,0.5l0,0c-0.4,0.3-0.7,0.8-0.8,1.3
		c-0.2,0.7-0.1,1.5,0.2,2.1l0,0C6.1,17.9,7,18.3,8,18.5c0.4,0.1,1,0.2,1.2,0.3c0.3,0.4,0.3,1.2-0.4,1.6c-0.3,0.2-0.7,0.1-1.1,0
		c-0.3-0.1-0.5-0.3-0.5-0.6c0-0.5-0.4-0.9-0.9-0.9c-0.5,0-0.9,0.4-0.9,0.9c0,1,0.6,1.8,1.5,2.2C7.2,22,7.4,22,7.5,22.1v0.7
		c0,0.5,0.4,0.9,0.9,0.9c0.5,0,0.9-0.4,0.9-0.9v-0.7c0.2,0,0.3-0.1,0.4-0.2l0,0c1.9-1,1.7-3.3,0.8-4.3c-0.1-0.1-0.3-0.3-0.5-0.4
		c-0.3-0.1-0.7-0.2-1.1-0.3c-0.3-0.1-0.7-0.1-1.1-0.3c-0.2-0.1-0.4-0.2-0.4-0.3c-0.1-0.2-0.2-0.6-0.1-0.8c0-0.2,0.1-0.4,0.2-0.5
		c0.2-0.2,0.8-0.3,1.2-0.2c0.3,0.1,0.6,0.2,0.6,0.6c0,0.5,0.4,0.9,0.9,0.9c0.5,0,0.9-0.4,0.9-0.9c0-1.3-0.7-2-1.7-2.2v-0.7
		c0-0.5-0.4-0.9-0.9-0.9c-0.5,0-0.9,0.4-0.9,0.9V13.2z M16.5,21.9h4.2c0.5,0,0.9-0.4,0.9-0.9s-0.4-0.9-0.9-0.9h-4.2
		c-0.5,0-0.9,0.4-0.9,0.9S16.1,21.9,16.5,21.9z M16.5,18.5h7.7c0.5,0,0.9-0.4,0.9-0.9s-0.4-0.9-0.9-0.9h-7.7c-0.5,0-0.9,0.4-0.9,0.9
		S16.1,18.5,16.5,18.5z M16.5,15.1h7.7c0.5,0,0.9-0.4,0.9-0.9s-0.4-0.9-0.9-0.9h-7.7c-0.5,0-0.9,0.4-0.9,0.9S16.1,15.1,16.5,15.1z
		 M6.7,4.8H5.2c-0.9,0-1.6,0.8-1.6,1.7v1.7h23.1V6.6c0-0.9-0.7-1.7-1.6-1.7h-1.4v0.8c0,0.5-0.4,0.9-0.9,0.9c-0.5,0-0.9-0.4-0.9-0.9
		V4.8h-3.4v0.8c0,0.5-0.4,0.9-0.9,0.9S17,6.2,17,5.7V4.8h-3.4v0.8c0,0.5-0.4,0.9-0.9,0.9c-0.5,0-0.9-0.4-0.9-0.9V4.8H8.4v0.8
		c0,0.5-0.4,0.9-0.9,0.9c-0.5,0-0.9-0.4-0.9-0.9V4.8z"/>
	<path class="st0" d="M14,21.9L14,21.9c-0.5,0-0.9-0.4-0.9-0.9s0.4-0.9,0.9-0.9h0c0.5,0,0.9,0.4,0.9,0.9S14.4,21.9,14,21.9"/>
</g>
</svg>
