<?xml version="1.0" encoding="utf-8"?>
<!-- Generator: Adobe Illustrator 26.1.0, SVG Export Plug-In . SVG Version: 6.00 Build 0)  -->
<svg version="1.1" id="Layer_1" xmlns="http://www.w3.org/2000/svg" xmlns:xlink="http://www.w3.org/1999/xlink" x="0px" y="0px"
	 viewBox="0 0 39.8 39.8" style="enable-background:new 0 0 39.8 39.8;" xml:space="preserve">
<style type="text/css">
	.st0{fill:#FFFFFF;}
</style>
<g>
	<path class="st0" d="M8,8V7c0-0.7-0.3-1.3-0.7-1.7c-0.4-0.4-1-0.7-1.7-0.7h0C5,4.6,4.4,4.8,3.9,5.3C3.5,5.7,3.2,6.3,3.2,7v5.4
		C3.2,12.7,3,13,2.6,13c-0.3,0-0.6-0.3-0.6-0.6V7c0-1,0.4-1.9,1-2.5c0.6-0.6,1.5-1,2.5-1h23.5c1,0,1.9,0.4,2.5,1.1l0,0
		C32.3,5.1,32.7,6,32.7,7v23.1h4.4c0.3,0,0.6,0.3,0.6,0.6v2.2c0,1-0.4,1.8-1,2.4c-0.6,0.6-1.5,1-2.4,1H11.5c-1,0-1.8-0.4-2.4-1
		c-0.6-0.6-1-1.5-1-2.4v-3.4H2.6c-0.3,0-0.6-0.3-0.6-0.6V16.5c0-0.3,0.3-0.6,0.6-0.6s0.6,0.3,0.6,0.6v11.9H8V16.5
		c0-0.3,0.3-0.6,0.6-0.6c0.3,0,0.6,0.3,0.6,0.6v16.4c0,0.6,0.3,1.2,0.7,1.6c0.4,0.4,1,0.7,1.6,0.7h0c0.6,0,1.2-0.3,1.6-0.7l0,0
		c0.4-0.4,0.7-1,0.7-1.6v-2.2c0-0.3,0.3-0.6,0.6-0.6h9.2c0.3,0,0.6,0.3,0.6,0.6s-0.3,0.6-0.6,0.6H15v1.7c0,0.9-0.3,1.7-0.9,2.3h20.2
		c0.6,0,1.2-0.3,1.6-0.7c0.4-0.4,0.7-1,0.7-1.6v-1.7h-8.9c-0.3,0-0.6-0.3-0.6-0.6s0.3-0.6,0.6-0.6h3.9V7c0-0.7-0.3-1.3-0.7-1.7
		c-0.4-0.4-1.1-0.7-1.7-0.7H8.2c0.6,0.6,1,1.5,1,2.4v5.4c0,0.3-0.3,0.6-0.6,0.6C8.3,13,8,12.7,8,12.4L8,8L8,8z M11.5,27.5
		c-0.3,0-0.6-0.3-0.6-0.6s0.3-0.6,0.6-0.6h2.4c0.3,0,0.6,0.3,0.6,0.6s-0.3,0.6-0.6,0.6H11.5z M16.3,27.5c-0.3,0-0.6-0.3-0.6-0.6
		s0.3-0.6,0.6-0.6h13c0.3,0,0.6,0.3,0.6,0.6s-0.3,0.6-0.6,0.6H16.3z M11.5,24.4c-0.3,0-0.6-0.3-0.6-0.6s0.3-0.6,0.6-0.6h2.4
		c0.3,0,0.6,0.3,0.6,0.6s-0.3,0.6-0.6,0.6H11.5z M16.3,24.4c-0.3,0-0.6-0.3-0.6-0.6s0.3-0.6,0.6-0.6h13c0.3,0,0.6,0.3,0.6,0.6
		s-0.3,0.6-0.6,0.6H16.3z M5.1,7c0-0.3,0.3-0.6,0.6-0.6S6.2,6.6,6.2,7v5.5c0,0.3-0.3,0.6-0.6,0.6s-0.6-0.3-0.6-0.6V7z M5.1,14.3
		c0-0.3,0.3-0.6,0.6-0.6s0.6,0.3,0.6,0.6v0.2c0,0.3-0.3,0.6-0.6,0.6s-0.6-0.3-0.6-0.6V14.3z M5.1,16.5c0-0.3,0.3-0.6,0.6-0.6
		s0.6,0.3,0.6,0.6v6.9c0,0.3-0.3,0.6-0.6,0.6s-0.6-0.3-0.6-0.6V16.5z M19.8,7.1c0-0.3,0.3-0.6,0.6-0.6c0.3,0,0.6,0.3,0.6,0.6v0.6
		c0.6,0.1,1.2,0.4,1.6,0.8c0.5,0.5,0.9,1.3,0.9,2.1c0,0.3-0.3,0.6-0.6,0.6c-0.3,0-0.6-0.3-0.6-0.6c0-0.5-0.2-1-0.6-1.3
		c-0.3-0.3-0.8-0.6-1.3-0.6h0c-0.5,0-1,0.2-1.3,0.6c-0.3,0.3-0.6,0.8-0.6,1.3c0,1.3,1.1,1.9,2.2,2.5c1.4,0.7,2.8,1.5,2.8,3.5
		c0,0.8-0.3,1.6-0.9,2.1c-0.4,0.4-1,0.7-1.6,0.8v0.6c0,0.3-0.3,0.6-0.6,0.6c-0.3,0-0.6-0.3-0.6-0.6v-0.6c-0.6-0.1-1.2-0.4-1.6-0.8
		c-0.5-0.5-0.9-1.3-0.9-2.1c0-0.3,0.3-0.6,0.6-0.6c0.3,0,0.6,0.3,0.6,0.6c0,0.5,0.2,1,0.6,1.3c0.3,0.3,0.8,0.6,1.3,0.6h0
		c0.5,0,1-0.2,1.3-0.6c0.3-0.3,0.6-0.8,0.6-1.3c0-1.3-1.1-1.9-2.2-2.5c-1.4-0.7-2.8-1.5-2.8-3.5c0-0.8,0.3-1.6,0.9-2.1
		c0.4-0.4,1-0.7,1.6-0.8L19.8,7.1L19.8,7.1z M2.1,14.3c0-0.3,0.3-0.6,0.6-0.6c0.3,0,0.6,0.3,0.6,0.6v0.2c0,0.3-0.3,0.6-0.6,0.6
		c-0.3,0-0.6-0.3-0.6-0.6V14.3z M25.7,30.1c0.3,0,0.6,0.3,0.6,0.6s-0.3,0.6-0.6,0.6h-0.2c-0.3,0-0.6-0.3-0.6-0.6s0.3-0.6,0.6-0.6
		H25.7z M8,14.3c0-0.3,0.3-0.6,0.6-0.6c0.3,0,0.6,0.3,0.6,0.6v0.2c0,0.3-0.3,0.6-0.6,0.6c-0.3,0-0.6-0.3-0.6-0.6V14.3z"/>
</g>
</svg>
