<?xml version="1.0" encoding="utf-8"?>
<!-- Generator: Adobe Illustrator 26.1.0, SVG Export Plug-In . SVG Version: 6.00 Build 0)  -->
<svg version="1.1" id="Layer_1" xmlns="http://www.w3.org/2000/svg" xmlns:xlink="http://www.w3.org/1999/xlink" x="0px" y="0px"
	 viewBox="0 0 39.8 39.8" style="enable-background:new 0 0 39.8 39.8;" xml:space="preserve">
<style type="text/css">
	.st0{fill:#FFFFFF;}
</style>
<g>
	<polygon class="st0" points="1.5,38 1.5,1.9 28,1.9 28,14.1 26.7,14.1 26.7,3.2 2.8,3.2 2.8,36.6 25.1,36.6 25.1,37.9 	"/>
	<rect x="5.3" y="6.8" class="st0" width="18.9" height="1.3"/>
	<rect x="5.3" y="10.4" class="st0" width="18.9" height="1.3"/>
	<rect x="5.3" y="14.1" class="st0" width="9.4" height="1.3"/>
	<rect x="5.3" y="17.8" class="st0" width="6.8" height="1.3"/>
	<path class="st0" d="M34.5,25.1l2.6,2.1c0.3,0.3,0.9,0.2,1.1-0.1c0.1-0.2,0.2-0.4,0.2-0.6c0-0.2-0.1-0.4-0.3-0.5l0,0L25.2,15.7
		c-0.3-0.2-0.7-0.2-1,0L11.4,26c-0.3,0.3-0.4,0.8-0.1,1.1c0.1,0.2,0.3,0.3,0.5,0.3c0.2,0,0.4,0,0.6-0.2l2.5-2v9.7
		c0,0.4,0.3,0.7,0.7,0.7h6.1c0.4,0,0.7-0.3,0.7-0.7v-6c0-1.4,0.9-2.6,2.1-2.6h0.3c1.1,0,2.1,1.2,2.1,2.6v6c0,0.4,0.3,0.7,0.7,0.7
		h6.4c0.4,0,0.7-0.3,0.7-0.7C34.5,34.9,34.5,25.1,34.5,25.1z M33.1,34.2h-5v-5.3c0-2.2-1.5-4-3.4-4h-0.3c-1.9,0-3.4,1.8-3.4,4v5.3
		h-4.7V24l8.4-6.7l8.4,6.7V34.2z"/>
	<circle class="st0" cx="25.3" cy="30.2" r="0.8"/>
</g>
</svg>
