<?xml version="1.0" encoding="utf-8"?>
<!-- Generator: Adobe Illustrator 26.1.0, SVG Export Plug-In . SVG Version: 6.00 Build 0)  -->
<svg version="1.1" id="Layer_1" xmlns="http://www.w3.org/2000/svg" xmlns:xlink="http://www.w3.org/1999/xlink" x="0px" y="0px"
	 viewBox="0 0 39.8 39.8" style="enable-background:new 0 0 39.8 39.8;" xml:space="preserve">
<style type="text/css">
	.st0{fill:#FFFFFF;}
</style>
<g>
	<path class="st0" d="M37.7,24.6c0-1.1-0.9-2-2-2h-0.3c1.4-1,2.3-2.7,2.3-4.6c0-3.2-2.6-5.7-5.7-5.7c-0.8,0-1.6,0.2-2.3,0.5v-2.2
		c0-0.3-0.2-0.6-0.6-0.6h-4.9c-0.3,0-0.6,0.2-0.6,0.6v20.9h-3V14.1c0-0.3-0.2-0.6-0.6-0.6h-4.9c-0.3,0-0.6,0.2-0.6,0.6v17.4h-3V20.1
		c0-0.3-0.2-0.6-0.6-0.6H6.3c-0.3,0-0.6,0.2-0.6,0.6v11.4H3.2V7.7c0-0.3-0.2-0.6-0.6-0.6S2.1,7.4,2.1,7.7v24.3
		c0,0.3,0.2,0.6,0.6,0.6h33.1c1.1,0,2-0.9,2-2c0-0.6-0.2-1.1-0.6-1.5c0.4-0.4,0.6-0.9,0.6-1.5c0-0.6-0.2-1.1-0.6-1.5
		C37.5,25.8,37.7,25.2,37.7,24.6z M36.6,18c0,2.5-2.1,4.6-4.6,4.6c-2.5,0-4.6-2.1-4.6-4.6s2.1-4.6,4.6-4.6
		C34.6,13.4,36.6,15.5,36.6,18z M24.8,11.1h3.8v2.3c-1.4,1-2.3,2.7-2.3,4.6c0,1.9,0.9,3.6,2.3,4.6h-0.3c-1.1,0-2,0.9-2,2
		c0,0.6,0.2,1.1,0.6,1.5c-0.4,0.4-0.6,0.9-0.6,1.5c0,0.6,0.2,1.1,0.6,1.5c-0.4,0.4-0.6,0.9-0.6,1.5c0,0.3,0.1,0.6,0.2,0.9h-1.7
		L24.8,11.1L24.8,11.1z M15.8,14.7h3.8v16.8h-3.8V14.7z M6.8,20.6h3.8v10.9H6.8V20.6z M36.6,30.6c0,0.5-0.4,0.9-0.9,0.9h-7.4
		c-0.5,0-0.9-0.4-0.9-0.9c0-0.5,0.4-0.9,0.9-0.9h7.4C36.2,29.6,36.6,30.1,36.6,30.6z M36.6,27.6c0,0.5-0.4,0.9-0.9,0.9h-7.4
		c-0.5,0-0.9-0.4-0.9-0.9c0-0.5,0.4-0.9,0.9-0.9h7.4C36.2,26.7,36.6,27.1,36.6,27.6z M28.3,25.6c-0.5,0-0.9-0.4-0.9-0.9
		c0-0.5,0.4-0.9,0.9-0.9h7.4c0.5,0,0.9,0.4,0.9,0.9c0,0.5-0.4,0.9-0.9,0.9H28.3z M30.1,19.3c-0.1-0.3,0-0.6,0.3-0.7
		c0.3-0.1,0.6,0,0.7,0.3c0.2,0.4,0.5,0.6,0.7,0.7c0.3,0.1,0.6,0,0.8-0.1c0.1-0.1,0.2-0.2,0.2-0.3c0-0.1,0-0.2-0.1-0.3
		c-0.1-0.1-0.4-0.2-0.6-0.2c-0.4-0.1-1-0.2-1.4-0.7c-0.3-0.4-0.5-0.9-0.4-1.4c0.1-0.5,0.5-0.9,1-1.1c0,0,0.1,0,0.1,0V15
		c0-0.3,0.2-0.6,0.6-0.6c0.3,0,0.6,0.2,0.6,0.6v0.4c0.2,0,0.3,0.1,0.5,0.2c0.4,0.2,0.7,0.6,0.8,1c0.1,0.3-0.1,0.6-0.4,0.7
		c-0.3,0.1-0.6-0.1-0.7-0.4c0-0.1-0.1-0.2-0.3-0.3c-0.2-0.1-0.6-0.1-0.8,0c-0.2,0.1-0.3,0.2-0.3,0.3c0,0.1,0,0.3,0.1,0.4
		c0.2,0.2,0.5,0.3,0.9,0.3c0.4,0.1,0.8,0.2,1.1,0.5c0.3,0.3,0.5,0.7,0.4,1.2c0,0.5-0.3,0.9-0.7,1.1c-0.2,0.1-0.4,0.2-0.7,0.3V21
		c0,0.3-0.2,0.6-0.6,0.6c-0.3,0-0.6-0.2-0.6-0.6v-0.5C30.9,20.4,30.4,19.9,30.1,19.3z"/>
</g>
</svg>
